<svg width="20" height="24" viewBox="0 0 20 24" fill="none" xmlns="http://www.w3.org/2000/svg">
<path d="M10.326 0C3.747 0.001 0.25 4.216 0.25 8.812C0.25 10.943 1.441 13.602 3.348 14.445C3.892 14.69 3.82 14.391 4.288 12.601C4.325 12.452 4.306 12.323 4.186 12.184C1.46 9.031 3.654 2.549 9.937 2.549C19.03 2.549 17.331 15.131 11.519 15.131C10.021 15.131 8.905 13.955 9.258 12.5C9.686 10.767 10.524 8.904 10.524 7.655C10.524 4.507 5.834 4.974 5.834 9.145C5.834 10.434 6.29 11.304 6.29 11.304C6.29 11.304 4.781 17.4 4.501 18.539C4.027 20.467 4.565 23.588 4.612 23.857C4.641 24.005 4.807 24.052 4.9 23.93C5.049 23.735 6.873 21.133 7.384 19.252C7.57 18.567 8.333 15.787 8.333 15.787C8.836 16.695 10.286 17.455 11.831 17.455C16.427 17.455 19.749 13.415 19.749 8.402C19.733 3.596 15.62 0 10.326 0V0Z" fill="white"/>
</svg>
